<?xml version="1.0" encoding="UTF-8"?><svg id="a" xmlns="http://www.w3.org/2000/svg" viewBox="0 0 74 82"><defs><style>.b{fill:none;stroke:#858585;stroke-linejoin:round;stroke-width:1.5px;}</style></defs><path class="b" d="M71.7,12.01C54.35,17.36,52.36,2,37,2h0c-15.36,0-17.35,15.36-34.7,10.01,0,0,10.55,8.14,4.46,27.48-5.3,16.83,16.21,33.51,30.24,40.5h0c14.03-7,35.54-23.67,30.24-40.5-6.09-19.34,4.46-27.48,4.46-27.48Z"/><path class="b" d="M65.94,15.58c-12.24,2.89-16.58-10.24-28.94-10.24h0c-12.36,0-16.7,13.13-28.94,10.24,0,0,8.05,2.62,2.29,25.48-3.76,14.96,13.37,27.36,25.66,34.58l.98,.57,.98-.57c12.3-7.22,29.43-19.62,25.66-34.58-5.75-22.87,2.29-25.48,2.29-25.48Z"/></svg>