<?xml version="1.0" encoding="UTF-8"?><svg id="a" xmlns="http://www.w3.org/2000/svg" viewBox="0 0 74 82"><defs><style>.b{fill:none;stroke:#858585;stroke-linejoin:round;stroke-width:1.5px;}</style></defs><path class="b" d="M37,80c15.24,0,23.2-14.46,25.23-30.93,.33-2.67,9.5-8.12,9.5-8.12,0,0-9.24-5.72-9.63-8.52-2.27-16.26-10.29-30.43-25.09-30.43S14.04,16.17,11.77,32.43c-.39,2.8-9.5,8.52-9.5,8.52,0,0,9.17,5.45,9.5,8.12,2.03,16.47,9.99,30.93,25.23,30.93Z"/><path class="b" d="M37,5.23c-31.69,1.64-28.29,69.71,0,71.54,28.29-1.83,31.69-69.9,0-71.54Z"/></svg>