<?xml version="1.0" encoding="UTF-8"?><svg id="a" xmlns="http://www.w3.org/2000/svg" viewBox="0 0 74 82"><defs><style>.b{fill:none;stroke:#858585;stroke-linejoin:round;stroke-width:1.5px;}</style></defs><path class="b" d="M61.73,18.67c-3.67-3.34,4.41-9.71,4.41-9.71L37.47,2.11l-.47-.11-.47,.11L7.86,8.96s8.09,6.37,4.41,9.71c-3.67,3.34-10.27-2.48-10.27-2.48,0,50.08,22.85,63.81,35,63.81h0c12.14,0,35-13.73,35-63.81,0,0-6.6,5.82-10.27,2.48Z"/><path class="b" d="M69,21.42s-5.51,3.83-9.74-.28c-4.23-4.12,.81-10.64,.81-10.64l-22.64-5.13-.44-.1-.44,.1L13.93,10.5s5.03,6.52,.81,10.64c-4.23,4.12-9.74,.28-9.74,.28,1.38,39.76,19.34,54.8,31.46,55.65,0,0,.37,.03,.55,.02,.18,0,.55-.02,.55-.02,12.11-.86,30.08-15.89,31.46-55.65Z"/></svg>