<?xml version="1.0" encoding="UTF-8"?><svg id="a" xmlns="http://www.w3.org/2000/svg" viewBox="0 0 74 82"><defs><style>.b{fill:none;stroke:#858585;stroke-linejoin:round;stroke-width:1.5px;}</style></defs><path class="b" d="M68.04,2H5.96l-3.85,6.74,6.11,2.25V50.82c0,17.02,23.29,22.81,28.66,29.18,.04-.05,.08-.1,.12-.15,.04,.05,.09,.1,.12,.15,5.37-6.37,28.66-12.16,28.66-29.18V10.99l6.11-2.25-3.85-6.74Z"/><path class="b" d="M62.09,8.66c0,7.38-.01,35.35-.54,43.79-.73,11.65-22.25,20.56-24.43,22.69-.03-.03-.08-.07-.12-.11-.04,.04-.09,.07-.12,.11-2.19-2.12-23.71-11.03-24.43-22.69-.53-8.44-.54-36.41-.54-43.79l-4.67-1.61,1.14-1.82h57.24l1.14,1.82-4.67,1.61Z"/></svg>