<?xml version="1.0" encoding="UTF-8"?><svg id="a" xmlns="http://www.w3.org/2000/svg" viewBox="0 0 162 82"><defs><style>.b{fill:none;stroke:#858585;stroke-linejoin:round;stroke-width:1.5px;}</style></defs><path class="b" d="M149.41,45.82s.85-20.38,3.73-23.26,5.76-3.63,5.76-3.63l-6.21-6.54h-30.09S110.93,2,81,2,39.39,12.39,39.39,12.39H9.3l-6.21,6.54s2.88,.75,5.76,3.63,3.73,23.26,3.73,23.26c-.45,9.24-7.52,6.78-7.52,6.78l9.65,15.52s46.49-18.58,65.91,11.29l.37,.59,.37-.59c19.42-29.87,65.91-11.29,65.91-11.29l9.65-15.52s-7.07,2.46-7.52-6.78Z"/><path class="b" d="M146.04,46.62s.65-22.93,3.27-25.55,3.41-2.77,3.41-2.77l-1.57-1.73-29.05-.09s-13.87-10.92-41.06-10.94h-.07c-27.19,.02-41.06,10.94-41.06,10.94l-29.05,.09-1.57,1.73s.79,.15,3.41,2.77,3.27,25.55,3.27,25.55c-.41,8.4-4.66,8.48-4.66,8.48l4.64,8s44.79-15.76,64.68,9.89l.37,.49,.37-.49c19.89-25.65,64.68-9.89,64.68-9.89l4.64-8s-4.25-.08-4.66-8.48Z"/></svg>