<?xml version="1.0" encoding="UTF-8"?><svg id="a" xmlns="http://www.w3.org/2000/svg" viewBox="0 0 252 58"><defs><style>.b{fill:none;stroke:#858585;stroke-linejoin:round;stroke-width:1.5px;}</style></defs><path class="b" d="M241.07,29c0-5.79,4.12-10.62,9.59-11.72l-8.36-15.74s-4,6.58-12.55,6.58H22.24C13.7,8.11,9.7,1.54,9.7,1.54L1.33,17.28c5.47,1.1,9.59,5.93,9.59,11.72s-4.04,10.53-9.43,11.68l8.2,15.85s4-6.75,12.55-6.75H229.76c8.54,0,12.55,6.75,12.55,6.75l8.2-15.85c-5.39-1.16-9.43-5.95-9.43-11.68Z"/><path class="b" d="M236.56,29c0-5.83,3.94-11.45,8.98-13.61l-3.99-7.15s-3.17,3.69-11.29,3.69c-5.94,0-63.96-.13-94.76-.2v-.04s-3.6,0-9.5,.02c-5.9-.01-9.5-.02-9.5-.02v.04c-30.8,.07-88.82,.2-94.76,.2-8.12,0-11.29-3.69-11.29-3.69l-3.99,7.15c5.04,2.16,8.98,7.78,8.98,13.61s-3.95,11.23-8.9,13.42l3.92,7.34s5.51-3.51,13.64-3.51H227.91c8.12,0,13.64,3.51,13.64,3.51l3.92-7.34c-4.96-2.19-8.9-7.65-8.9-13.42Z"/></svg>